<?xml version="1.0" encoding="utf-8"?>
<!-- Generator: Adobe Illustrator 25.2.0, SVG Export Plug-In . SVG Version: 6.00 Build 0)  -->
<svg version="1.1" id="Layer_1" xmlns="http://www.w3.org/2000/svg" xmlns:xlink="http://www.w3.org/1999/xlink" x="0px" y="0px"
	 viewBox="0 0 22 23" style="enable-background:new 0 0 22 23;" xml:space="preserve">
<style type="text/css">
	.st0{fill:#373636;}
	.st1{opacity:0.25;fill:#FFFFFF;}
	.st2{opacity:0.25;}
	.st3{fill:#FFFFFF;}
	.st4{fill:#F9F7F4;}
	.st5{fill:#8D8E8E;}
	.st6{fill:#BCBBBB;}
	.st7{fill:#F05239;}
	.st8{fill:#E1E2E1;}
	.st9{opacity:0.5;fill:#FFFFFF;}
	.st10{opacity:0.3;}
</style>
<g>
	<g>
		<g>
			<path class="st0" d="M5.6,1.2L4.8,11.5l0.9,10.3c0,0.2-0.1,0.3-0.3,0.3l-0.5,0c-0.3,0-0.5-0.2-0.5-0.5L1.6,11.5L4.4,1.4
				C4.4,1.2,4.7,1,4.9,0.9l0.5,0C5.5,0.9,5.7,1,5.6,1.2z"/>
			<path class="st1" d="M4.7,21.7L2,11.5l0,0l0,0L4.7,1.3c0-0.1,0.1-0.2,0.3-0.2c0.1,0,0.2,0.1,0.2,0.2l0,0L3.2,11.8v-0.6l1.9,10.3
				l0,0c0,0.1-0.1,0.2-0.2,0.3C4.8,21.8,4.7,21.8,4.7,21.7z"/>
			<path class="st0" d="M15.5,1.2l0.9,10.3l-0.9,10.3c0,0.2,0.1,0.3,0.3,0.3l0.5,0c0.3,0,0.5-0.2,0.5-0.5l2.8-10.1L16.8,1.4
				c-0.1-0.2-0.3-0.4-0.5-0.5l-0.5,0C15.6,0.9,15.5,1,15.5,1.2z"/>
			<path class="st1" d="M16.5,21.7l2.7-10.1l0,0l0,0L16.5,1.3c0-0.1-0.1-0.2-0.3-0.2c-0.1,0-0.2,0.1-0.2,0.2l0,0L18,11.8v-0.6
				l-1.9,10.3l0,0c0,0.1,0.1,0.2,0.2,0.3C16.3,21.8,16.5,21.8,16.5,21.7z"/>
		</g>
		<path class="st0" d="M20.2,12.6h-0.9v-2.3h0.9c0.1,0,0.3,0.1,0.3,0.2c0.2,0.6,0.2,1.2,0,1.8C20.4,12.5,20.3,12.6,20.2,12.6z"/>
		<g class="st2">
			<path class="st3" d="M20.3,12H18c-0.1,0-0.1-0.1-0.1-0.1c0-0.1,0.1-0.1,0.1-0.1h2.3c0.1,0,0.1,0.1,0.1,0.1
				C20.5,12,20.4,12,20.3,12z"/>
		</g>
		<g class="st2">
			<path class="st3" d="M20.3,11.3H18c-0.1,0-0.1-0.1-0.1-0.1c0-0.1,0.1-0.1,0.1-0.1h2.3c0.1,0,0.1,0.1,0.1,0.1
				C20.5,11.2,20.4,11.3,20.3,11.3z"/>
		</g>
	</g>
	<g>
		<circle class="st0" cx="10.6" cy="11.5" r="9.2"/>
		
			<ellipse transform="matrix(1.212236e-03 -1 1 1.212236e-03 -0.9395 22.0605)" class="st4" cx="10.6" cy="11.5" rx="7.7" ry="7.7"/>
		<path class="st5" d="M10.9,3.8l-0.2,2.3c0,0.1-0.1,0.1-0.1,0.1c0,0-0.1,0-0.1-0.1l-0.2-2.3c0-0.2,0.1-0.3,0.3-0.3
			C10.7,3.4,10.9,3.6,10.9,3.8C10.9,3.8,10.9,3.8,10.9,3.8z"/>
		<path class="st5" d="M14.7,5l-1.3,1.8c0,0-0.1,0.1-0.1,0c0,0,0-0.1,0-0.1l0.9-2.1c0.1-0.2,0.3-0.2,0.4-0.2
			C14.7,4.6,14.8,4.8,14.7,5C14.7,5,14.7,5,14.7,5z"/>
		<path class="st6" d="M10.6,4.2c4,0,7.3,3.3,7.3,7.3c0,4-3.3,7.3-7.3,7.3c-4,0-7.3-3.3-7.3-7.3C3.2,7.5,6.5,4.2,10.6,4.2L10.6,4.2z
			 M10.6,3.4c-4.5,0-8.1,3.6-8.1,8.1s3.6,8.1,8.1,8.1s8.1-3.6,8.1-8.1S15,3.4,10.6,3.4L10.6,3.4z"/>
		<g>
			<path class="st0" d="M10.7,3.8c0,0.1-0.1,0.2-0.2,0.2c-0.1,0-0.2-0.1-0.2-0.2s0.1-0.2,0.2-0.2C10.7,3.7,10.7,3.7,10.7,3.8z"/>
			<path class="st0" d="M8.7,4.1c0,0.1-0.1,0.2-0.2,0.2c-0.1,0-0.2-0.1-0.2-0.2c0-0.1,0.1-0.2,0.2-0.2C8.7,3.9,8.7,4,8.7,4.1z"/>
			<path class="st0" d="M3.3,9.5c0,0.1-0.1,0.2-0.2,0.2S3,9.6,3,9.5s0.1-0.2,0.2-0.2S3.3,9.4,3.3,9.5z"/>
			<circle class="st0" cx="3.9" cy="7.7" r="0.2"/>
			<path class="st0" d="M5.3,6.1c0,0.1-0.1,0.2-0.2,0.2S5,6.1,5,6.1s0.1-0.2,0.2-0.2S5.3,6,5.3,6.1z"/>
			<path class="st0" d="M6.9,4.8C6.9,4.9,6.8,5,6.7,5C6.6,5,6.6,4.9,6.6,4.8c0-0.1,0.1-0.2,0.2-0.2C6.8,4.7,6.9,4.8,6.9,4.8z"/>
			<path class="st0" d="M3,11.5c0,0.1-0.1,0.2-0.2,0.2c-0.1,0-0.2-0.1-0.2-0.2s0.1-0.2,0.2-0.2C3,11.3,3,11.4,3,11.5z"/>
			<path class="st0" d="M5.3,16.9c0,0.1-0.1,0.2-0.2,0.2C5.1,17.1,5,17,5,16.9s0.1-0.2,0.2-0.2C5.2,16.8,5.3,16.9,5.3,16.9z"/>
			<path class="st0" d="M4.1,15.3c0,0.1-0.1,0.2-0.2,0.2c-0.1,0-0.2-0.1-0.2-0.2c0-0.1,0.1-0.2,0.2-0.2C4,15.2,4.1,15.3,4.1,15.3z"
				/>
			<path class="st0" d="M3.3,13.5c0,0.1-0.1,0.2-0.2,0.2c-0.1,0-0.2-0.1-0.2-0.2c0-0.1,0.1-0.2,0.2-0.2C3.2,13.3,3.3,13.4,3.3,13.5z
				"/>
			<path class="st0" d="M6.9,18.2c0,0.1-0.1,0.2-0.2,0.2c-0.1,0-0.2-0.1-0.2-0.2c0-0.1,0.1-0.2,0.2-0.2C6.8,18,6.9,18.1,6.9,18.2z"
				/>
			<path class="st0" d="M8.7,18.9c0,0.1-0.1,0.2-0.2,0.2c-0.1,0-0.2-0.1-0.2-0.2c0-0.1,0.1-0.2,0.2-0.2C8.7,18.8,8.7,18.8,8.7,18.9z
				"/>
			<path class="st0" d="M10.7,19.2c0,0.1-0.1,0.2-0.2,0.2c-0.1,0-0.2-0.1-0.2-0.2s0.1-0.2,0.2-0.2C10.7,19,10.7,19.1,10.7,19.2z"/>
			<path class="st0" d="M12.7,18.9c0,0.1-0.1,0.2-0.2,0.2c-0.1,0-0.2-0.1-0.2-0.2c0-0.1,0.1-0.2,0.2-0.2
				C12.6,18.8,12.7,18.8,12.7,18.9z"/>
			<circle class="st0" cx="14.4" cy="18.2" r="0.2"/>
			<path class="st0" d="M16.2,16.9c0,0.1-0.1,0.2-0.2,0.2s-0.2-0.1-0.2-0.2s0.1-0.2,0.2-0.2S16.2,16.9,16.2,16.9z"/>
			<path class="st0" d="M17.4,15.3c0,0.1-0.1,0.2-0.2,0.2c-0.1,0-0.2-0.1-0.2-0.2c0-0.1,0.1-0.2,0.2-0.2
				C17.3,15.2,17.4,15.3,17.4,15.3z"/>
			<path class="st0" d="M18.2,13.5c0,0.1-0.1,0.2-0.2,0.2s-0.2-0.1-0.2-0.2c0-0.1,0.1-0.2,0.2-0.2S18.2,13.4,18.2,13.5z"/>
			<path class="st0" d="M18.4,11.5c0,0.1-0.1,0.2-0.2,0.2s-0.2-0.1-0.2-0.2s0.1-0.2,0.2-0.2S18.4,11.4,18.4,11.5z"/>
			<circle class="st0" cx="18" cy="9.5" r="0.2"/>
			<path class="st0" d="M17.4,7.7c0,0.1-0.1,0.2-0.2,0.2s-0.2-0.1-0.2-0.2c0-0.1,0.1-0.2,0.2-0.2S17.4,7.6,17.4,7.7z"/>
			<path class="st0" d="M16.2,6.1c0,0.1-0.1,0.2-0.2,0.2s-0.2-0.1-0.2-0.2s0.1-0.2,0.2-0.2S16.2,6,16.2,6.1z"/>
			<path class="st0" d="M14.6,4.8c0,0.1-0.1,0.2-0.2,0.2c-0.1,0-0.2-0.1-0.2-0.2c0-0.1,0.1-0.2,0.2-0.2C14.5,4.7,14.6,4.8,14.6,4.8z
				"/>
			<path class="st0" d="M12.7,4.1c0,0.1-0.1,0.2-0.2,0.2c-0.1,0-0.2-0.1-0.2-0.2c0-0.1,0.1-0.2,0.2-0.2C12.6,3.9,12.7,4,12.7,4.1z"
				/>
		</g>
		<rect x="12.9" y="10.8" class="st6" width="1.8" height="1.3"/>
		<path class="st7" d="M11.6,10.6l-5.1,5c0,0-0.1,0-0.1,0c0,0,0-0.1,0-0.1l5-5.1c0,0,0.1,0,0.2,0C11.7,10.5,11.7,10.6,11.6,10.6
			L11.6,10.6z"/>
		<path class="st0" d="M13.7,14.7c-0.1,0-0.1-0.1-0.2-0.1c-0.2-0.1-0.4-0.2-0.5-0.4c-0.1-0.1-0.1-0.1-0.2-0.2L12,13.3l-1.6-1.6
			c-0.1-0.1-0.1-0.2,0-0.3c0.1-0.1,0.3-0.1,0.4,0l0,0l1.6,1.6l0.8,0.8c0.1,0.1,0.1,0.1,0.2,0.2c0.2,0.2,0.3,0.3,0.4,0.5
			C13.8,14.5,13.8,14.6,13.7,14.7C13.8,14.7,13.8,14.7,13.7,14.7C13.8,14.7,13.8,14.7,13.7,14.7z"/>
		<path class="st5" d="M8.3,10.8c0.1,0,0.2,0,0.3,0l0,0l0.7,0.2l1.3,0.3c0.1,0,0.1,0.1,0.1,0.1c0,0-0.1,0.1-0.1,0.1c0,0,0,0,0,0
			l-1.3-0.4l-0.7-0.2l0,0c-0.2,0-0.3-0.1-0.4-0.2C8.2,10.8,8.2,10.8,8.3,10.8L8.3,10.8z M8.3,10.7c-0.1,0-0.2,0-0.3,0c0,0,0,0,0,0
			c0,0,0,0-0.1,0c0,0,0,0.1,0,0.2c0,0,0,0,0,0c0.2,0.2,0.4,0.3,0.6,0.3l0,0l0.7,0.2l1.3,0.4l0,0c0,0,0,0,0.1,0
			c0.1,0,0.2-0.1,0.2-0.2c0-0.1-0.1-0.3-0.2-0.3l-1.3-0.3l-0.7-0.2l0,0C8.5,10.7,8.4,10.7,8.3,10.7L8.3,10.7z"/>
		<path class="st0" d="M10.6,11.9c-0.2,0-0.4-0.2-0.4-0.4c0-0.2,0.2-0.4,0.4-0.4c0.2,0,0.4,0.2,0.4,0.4C11,11.7,10.8,11.9,10.6,11.9
			z"/>
		<rect x="9.2" y="9.2" class="st8" width="2.5" height="0.6"/>
		<rect x="9.6" y="8" class="st8" width="1.7" height="0.6"/>
		<path class="st9" d="M15.1,4.8L4.7,17.1c-1.4-1.5-2.2-3.4-2.2-5.5c0-4.5,3.6-8.1,8.1-8.1C12.3,3.4,13.8,3.9,15.1,4.8z"/>
		<g class="st10">
			<path class="st3" d="M1.8,11.8c-0.1,0-0.1-0.1-0.1-0.1c0-5,4-9,9-9c0.1,0,0.1,0.1,0.1,0.1c0,0.1-0.1,0.1-0.1,0.1
				c-4.8,0-8.8,3.9-8.8,8.8C1.9,11.7,1.8,11.8,1.8,11.8z"/>
		</g>
		<g>
			<path class="st3" d="M13.7,11.3C13.7,11.3,13.7,11.3,13.7,11.3c0,0.1,0,0.1,0,0.1c0,0,0,0,0,0.1c0,0,0,0,0,0.1c0,0.1,0,0.1,0,0.1
				c0,0,0,0.1-0.1,0.1c0,0-0.1,0.1-0.1,0.1c0,0-0.1,0-0.2,0c-0.1,0-0.1,0-0.2,0c0,0-0.1,0-0.1-0.1c0,0,0-0.1-0.1-0.1
				c0,0,0-0.1,0-0.1c0,0,0-0.1,0-0.1c0,0,0-0.1,0-0.1c0-0.1,0-0.1,0-0.1c0,0,0-0.1,0.1-0.1c0,0,0.1-0.1,0.1-0.1c0,0,0.1,0,0.2,0
				c0.1,0,0.1,0,0.2,0c0,0,0.1,0,0.1,0.1c0,0,0,0.1,0.1,0.1C13.7,11.2,13.7,11.3,13.7,11.3z M13.2,11.5c0,0.1,0,0.1,0,0.1
				c0,0,0.1,0.1,0.1,0.1c0.1,0,0.1,0,0.1-0.1c0,0,0-0.1,0-0.1c0,0,0-0.1,0-0.1c0,0,0-0.1,0-0.1c0-0.1,0-0.1,0-0.1
				c0,0-0.1-0.1-0.1-0.1c-0.1,0-0.1,0-0.1,0.1c0,0,0,0.1,0,0.1c0,0,0,0.1,0,0.1C13.2,11.5,13.2,11.5,13.2,11.5z"/>
			<path class="st3" d="M14.5,11C14.5,11,14.5,11,14.5,11C14.5,11,14.5,11,14.5,11l0,0.1c0,0,0,0,0,0c0,0,0,0,0,0l-0.2,0.2
				c0,0,0.1,0,0.1,0c0,0,0.1,0,0.1,0.1c0,0,0,0,0.1,0.1c0,0,0,0.1,0,0.1c0,0,0,0.1,0,0.1c0,0,0,0.1-0.1,0.1c0,0-0.1,0-0.1,0.1
				c0,0-0.1,0-0.1,0c-0.1,0-0.1,0-0.2,0c0,0-0.1,0-0.1-0.1c0,0-0.1,0-0.1-0.1c0,0,0-0.1,0-0.1c0,0,0,0,0,0c0,0,0,0,0,0H14
				c0,0,0,0,0,0c0,0,0,0,0,0c0,0,0,0,0,0c0,0,0,0,0,0c0,0,0,0,0.1,0c0,0,0,0,0.1,0c0.1,0,0.1,0,0.1,0s0-0.1,0-0.1c0,0,0-0.1,0-0.1
				c0,0-0.1,0-0.1,0h-0.1c0,0,0,0,0,0c0,0,0,0,0,0v-0.1c0,0,0,0,0,0c0,0,0,0,0,0l0.2-0.2h-0.4c0,0,0,0,0,0c0,0,0,0,0,0V11
				c0,0,0,0,0,0c0,0,0,0,0,0H14.5z"/>
		</g>
	</g>
</g>
</svg>
